<svg xmlns="http://www.w3.org/2000/svg" width="24" height="24" viewBox="0 0 24 24" fill="currentColor">
<rect x="4" y="1" width="1" height="1"/>
<rect x="5" y="1" width="1" height="1"/>
<rect x="6" y="1" width="1" height="1"/>
<rect x="7" y="1" width="1" height="1"/>
<rect x="8" y="1" width="1" height="1"/>
<rect x="9" y="1" width="1" height="1"/>
<rect x="10" y="1" width="1" height="1"/>
<rect x="11" y="1" width="1" height="1"/>
<rect x="12" y="1" width="1" height="1"/>
<rect x="13" y="1" width="1" height="1"/>
<rect x="14" y="1" width="1" height="1"/>
<rect x="15" y="1" width="1" height="1"/>
<rect x="16" y="1" width="1" height="1"/>
<rect x="17" y="1" width="1" height="1"/>
<rect x="18" y="1" width="1" height="1"/>
<rect x="19" y="1" width="1" height="1"/>
<rect x="20" y="1" width="1" height="1"/>
<rect x="3" y="2" width="1" height="1"/>
<rect x="4" y="2" width="1" height="1"/>
<rect x="5" y="2" width="1" height="1"/>
<rect x="6" y="2" width="1" height="1"/>
<rect x="7" y="2" width="1" height="1"/>
<rect x="8" y="2" width="1" height="1"/>
<rect x="9" y="2" width="1" height="1"/>
<rect x="10" y="2" width="1" height="1"/>
<rect x="11" y="2" width="1" height="1"/>
<rect x="12" y="2" width="1" height="1"/>
<rect x="13" y="2" width="1" height="1"/>
<rect x="14" y="2" width="1" height="1"/>
<rect x="15" y="2" width="1" height="1"/>
<rect x="16" y="2" width="1" height="1"/>
<rect x="17" y="2" width="1" height="1"/>
<rect x="18" y="2" width="1" height="1"/>
<rect x="19" y="2" width="1" height="1"/>
<rect x="20" y="2" width="1" height="1"/>
<rect x="3" y="3" width="1" height="1"/>
<rect x="4" y="3" width="1" height="1"/>
<rect x="5" y="3" width="1" height="1"/>
<rect x="19" y="3" width="1" height="1"/>
<rect x="20" y="3" width="1" height="1"/>
<rect x="3" y="4" width="1" height="1"/>
<rect x="4" y="4" width="1" height="1"/>
<rect x="19" y="4" width="1" height="1"/>
<rect x="20" y="4" width="1" height="1"/>
<rect x="3" y="5" width="1" height="1"/>
<rect x="4" y="5" width="1" height="1"/>
<rect x="19" y="5" width="1" height="1"/>
<rect x="20" y="5" width="1" height="1"/>
<rect x="3" y="6" width="1" height="1"/>
<rect x="4" y="6" width="1" height="1"/>
<rect x="7" y="6" width="1" height="1"/>
<rect x="8" y="6" width="1" height="1"/>
<rect x="9" y="6" width="1" height="1"/>
<rect x="10" y="6" width="1" height="1"/>
<rect x="11" y="6" width="1" height="1"/>
<rect x="12" y="6" width="1" height="1"/>
<rect x="13" y="6" width="1" height="1"/>
<rect x="14" y="6" width="1" height="1"/>
<rect x="19" y="6" width="1" height="1"/>
<rect x="20" y="6" width="1" height="1"/>
<rect x="3" y="7" width="1" height="1"/>
<rect x="4" y="7" width="1" height="1"/>
<rect x="7" y="7" width="1" height="1"/>
<rect x="8" y="7" width="1" height="1"/>
<rect x="9" y="7" width="1" height="1"/>
<rect x="10" y="7" width="1" height="1"/>
<rect x="11" y="7" width="1" height="1"/>
<rect x="12" y="7" width="1" height="1"/>
<rect x="13" y="7" width="1" height="1"/>
<rect x="14" y="7" width="1" height="1"/>
<rect x="19" y="7" width="1" height="1"/>
<rect x="20" y="7" width="1" height="1"/>
<rect x="3" y="8" width="1" height="1"/>
<rect x="4" y="8" width="1" height="1"/>
<rect x="19" y="8" width="1" height="1"/>
<rect x="20" y="8" width="1" height="1"/>
<rect x="3" y="9" width="1" height="1"/>
<rect x="4" y="9" width="1" height="1"/>
<rect x="19" y="9" width="1" height="1"/>
<rect x="20" y="9" width="1" height="1"/>
<rect x="3" y="10" width="1" height="1"/>
<rect x="4" y="10" width="1" height="1"/>
<rect x="7" y="10" width="1" height="1"/>
<rect x="8" y="10" width="1" height="1"/>
<rect x="9" y="10" width="1" height="1"/>
<rect x="10" y="10" width="1" height="1"/>
<rect x="11" y="10" width="1" height="1"/>
<rect x="12" y="10" width="1" height="1"/>
<rect x="13" y="10" width="1" height="1"/>
<rect x="14" y="10" width="1" height="1"/>
<rect x="15" y="10" width="1" height="1"/>
<rect x="16" y="10" width="1" height="1"/>
<rect x="19" y="10" width="1" height="1"/>
<rect x="20" y="10" width="1" height="1"/>
<rect x="3" y="11" width="1" height="1"/>
<rect x="4" y="11" width="1" height="1"/>
<rect x="7" y="11" width="1" height="1"/>
<rect x="8" y="11" width="1" height="1"/>
<rect x="9" y="11" width="1" height="1"/>
<rect x="10" y="11" width="1" height="1"/>
<rect x="11" y="11" width="1" height="1"/>
<rect x="12" y="11" width="1" height="1"/>
<rect x="13" y="11" width="1" height="1"/>
<rect x="14" y="11" width="1" height="1"/>
<rect x="15" y="11" width="1" height="1"/>
<rect x="16" y="11" width="1" height="1"/>
<rect x="19" y="11" width="1" height="1"/>
<rect x="20" y="11" width="1" height="1"/>
<rect x="3" y="12" width="1" height="1"/>
<rect x="4" y="12" width="1" height="1"/>
<rect x="19" y="12" width="1" height="1"/>
<rect x="20" y="12" width="1" height="1"/>
<rect x="3" y="13" width="1" height="1"/>
<rect x="4" y="13" width="1" height="1"/>
<rect x="19" y="13" width="1" height="1"/>
<rect x="20" y="13" width="1" height="1"/>
<rect x="3" y="14" width="1" height="1"/>
<rect x="4" y="14" width="1" height="1"/>
<rect x="19" y="14" width="1" height="1"/>
<rect x="20" y="14" width="1" height="1"/>
<rect x="3" y="15" width="1" height="1"/>
<rect x="4" y="15" width="1" height="1"/>
<rect x="19" y="15" width="1" height="1"/>
<rect x="20" y="15" width="1" height="1"/>
<rect x="3" y="16" width="1" height="1"/>
<rect x="4" y="16" width="1" height="1"/>
<rect x="5" y="16" width="1" height="1"/>
<rect x="6" y="16" width="1" height="1"/>
<rect x="7" y="16" width="1" height="1"/>
<rect x="8" y="16" width="1" height="1"/>
<rect x="9" y="16" width="1" height="1"/>
<rect x="10" y="16" width="1" height="1"/>
<rect x="11" y="16" width="1" height="1"/>
<rect x="12" y="16" width="1" height="1"/>
<rect x="13" y="16" width="1" height="1"/>
<rect x="14" y="16" width="1" height="1"/>
<rect x="15" y="16" width="1" height="1"/>
<rect x="16" y="16" width="1" height="1"/>
<rect x="17" y="16" width="1" height="1"/>
<rect x="18" y="16" width="1" height="1"/>
<rect x="19" y="16" width="1" height="1"/>
<rect x="20" y="16" width="1" height="1"/>
<rect x="3" y="17" width="1" height="1"/>
<rect x="4" y="17" width="1" height="1"/>
<rect x="5" y="17" width="1" height="1"/>
<rect x="6" y="17" width="1" height="1"/>
<rect x="7" y="17" width="1" height="1"/>
<rect x="8" y="17" width="1" height="1"/>
<rect x="9" y="17" width="1" height="1"/>
<rect x="10" y="17" width="1" height="1"/>
<rect x="11" y="17" width="1" height="1"/>
<rect x="12" y="17" width="1" height="1"/>
<rect x="13" y="17" width="1" height="1"/>
<rect x="14" y="17" width="1" height="1"/>
<rect x="15" y="17" width="1" height="1"/>
<rect x="16" y="17" width="1" height="1"/>
<rect x="17" y="17" width="1" height="1"/>
<rect x="18" y="17" width="1" height="1"/>
<rect x="19" y="17" width="1" height="1"/>
<rect x="20" y="17" width="1" height="1"/>
<rect x="3" y="18" width="1" height="1"/>
<rect x="4" y="18" width="1" height="1"/>
<rect x="5" y="18" width="1" height="1"/>
<rect x="19" y="18" width="1" height="1"/>
<rect x="20" y="18" width="1" height="1"/>
<rect x="3" y="19" width="1" height="1"/>
<rect x="4" y="19" width="1" height="1"/>
<rect x="19" y="19" width="1" height="1"/>
<rect x="20" y="19" width="1" height="1"/>
<rect x="3" y="20" width="1" height="1"/>
<rect x="4" y="20" width="1" height="1"/>
<rect x="5" y="20" width="1" height="1"/>
<rect x="19" y="20" width="1" height="1"/>
<rect x="20" y="20" width="1" height="1"/>
<rect x="3" y="21" width="1" height="1"/>
<rect x="4" y="21" width="1" height="1"/>
<rect x="5" y="21" width="1" height="1"/>
<rect x="6" y="21" width="1" height="1"/>
<rect x="7" y="21" width="1" height="1"/>
<rect x="8" y="21" width="1" height="1"/>
<rect x="9" y="21" width="1" height="1"/>
<rect x="10" y="21" width="1" height="1"/>
<rect x="11" y="21" width="1" height="1"/>
<rect x="12" y="21" width="1" height="1"/>
<rect x="13" y="21" width="1" height="1"/>
<rect x="14" y="21" width="1" height="1"/>
<rect x="15" y="21" width="1" height="1"/>
<rect x="16" y="21" width="1" height="1"/>
<rect x="17" y="21" width="1" height="1"/>
<rect x="18" y="21" width="1" height="1"/>
<rect x="19" y="21" width="1" height="1"/>
<rect x="20" y="21" width="1" height="1"/>
<rect x="4" y="22" width="1" height="1"/>
<rect x="5" y="22" width="1" height="1"/>
<rect x="6" y="22" width="1" height="1"/>
<rect x="7" y="22" width="1" height="1"/>
<rect x="8" y="22" width="1" height="1"/>
<rect x="9" y="22" width="1" height="1"/>
<rect x="10" y="22" width="1" height="1"/>
<rect x="11" y="22" width="1" height="1"/>
<rect x="12" y="22" width="1" height="1"/>
<rect x="13" y="22" width="1" height="1"/>
<rect x="14" y="22" width="1" height="1"/>
<rect x="15" y="22" width="1" height="1"/>
<rect x="16" y="22" width="1" height="1"/>
<rect x="17" y="22" width="1" height="1"/>
<rect x="18" y="22" width="1" height="1"/>
<rect x="19" y="22" width="1" height="1"/>
<rect x="20" y="22" width="1" height="1"/>
</svg>