<svg xmlns="http://www.w3.org/2000/svg" width="24" height="24" viewBox="0 0 24 24" fill="currentColor">
<rect x="10" y="3" width="1" height="1"/>
<rect x="11" y="3" width="1" height="1"/>
<rect x="12" y="3" width="1" height="1"/>
<rect x="13" y="3" width="1" height="1"/>
<rect x="10" y="4" width="1" height="1"/>
<rect x="11" y="4" width="1" height="1"/>
<rect x="12" y="4" width="1" height="1"/>
<rect x="13" y="4" width="1" height="1"/>
<rect x="10" y="5" width="1" height="1"/>
<rect x="11" y="5" width="1" height="1"/>
<rect x="12" y="5" width="1" height="1"/>
<rect x="13" y="5" width="1" height="1"/>
<rect x="10" y="6" width="1" height="1"/>
<rect x="11" y="6" width="1" height="1"/>
<rect x="12" y="6" width="1" height="1"/>
<rect x="13" y="6" width="1" height="1"/>
<rect x="10" y="10" width="1" height="1"/>
<rect x="11" y="10" width="1" height="1"/>
<rect x="12" y="10" width="1" height="1"/>
<rect x="13" y="10" width="1" height="1"/>
<rect x="10" y="11" width="1" height="1"/>
<rect x="11" y="11" width="1" height="1"/>
<rect x="12" y="11" width="1" height="1"/>
<rect x="13" y="11" width="1" height="1"/>
<rect x="10" y="12" width="1" height="1"/>
<rect x="11" y="12" width="1" height="1"/>
<rect x="12" y="12" width="1" height="1"/>
<rect x="13" y="12" width="1" height="1"/>
<rect x="10" y="13" width="1" height="1"/>
<rect x="11" y="13" width="1" height="1"/>
<rect x="12" y="13" width="1" height="1"/>
<rect x="13" y="13" width="1" height="1"/>
<rect x="10" y="17" width="1" height="1"/>
<rect x="11" y="17" width="1" height="1"/>
<rect x="12" y="17" width="1" height="1"/>
<rect x="13" y="17" width="1" height="1"/>
<rect x="10" y="18" width="1" height="1"/>
<rect x="11" y="18" width="1" height="1"/>
<rect x="12" y="18" width="1" height="1"/>
<rect x="13" y="18" width="1" height="1"/>
<rect x="10" y="19" width="1" height="1"/>
<rect x="11" y="19" width="1" height="1"/>
<rect x="12" y="19" width="1" height="1"/>
<rect x="13" y="19" width="1" height="1"/>
<rect x="10" y="20" width="1" height="1"/>
<rect x="11" y="20" width="1" height="1"/>
<rect x="12" y="20" width="1" height="1"/>
<rect x="13" y="20" width="1" height="1"/>
</svg>