<svg xmlns="http://www.w3.org/2000/svg" width="24" height="24" viewBox="0 0 24 24" fill="currentColor">
<rect x="4" y="2" width="1" height="1"/>
<rect x="5" y="2" width="1" height="1"/>
<rect x="11" y="2" width="1" height="1"/>
<rect x="12" y="2" width="1" height="1"/>
<rect x="18" y="2" width="1" height="1"/>
<rect x="19" y="2" width="1" height="1"/>
<rect x="4" y="3" width="1" height="1"/>
<rect x="5" y="3" width="1" height="1"/>
<rect x="11" y="3" width="1" height="1"/>
<rect x="12" y="3" width="1" height="1"/>
<rect x="18" y="3" width="1" height="1"/>
<rect x="19" y="3" width="1" height="1"/>
<rect x="4" y="4" width="1" height="1"/>
<rect x="5" y="4" width="1" height="1"/>
<rect x="11" y="4" width="1" height="1"/>
<rect x="12" y="4" width="1" height="1"/>
<rect x="18" y="4" width="1" height="1"/>
<rect x="19" y="4" width="1" height="1"/>
<rect x="4" y="5" width="1" height="1"/>
<rect x="5" y="5" width="1" height="1"/>
<rect x="11" y="5" width="1" height="1"/>
<rect x="12" y="5" width="1" height="1"/>
<rect x="18" y="5" width="1" height="1"/>
<rect x="19" y="5" width="1" height="1"/>
<rect x="4" y="6" width="1" height="1"/>
<rect x="5" y="6" width="1" height="1"/>
<rect x="11" y="6" width="1" height="1"/>
<rect x="12" y="6" width="1" height="1"/>
<rect x="18" y="6" width="1" height="1"/>
<rect x="19" y="6" width="1" height="1"/>
<rect x="4" y="7" width="1" height="1"/>
<rect x="5" y="7" width="1" height="1"/>
<rect x="11" y="7" width="1" height="1"/>
<rect x="12" y="7" width="1" height="1"/>
<rect x="18" y="7" width="1" height="1"/>
<rect x="19" y="7" width="1" height="1"/>
<rect x="4" y="8" width="1" height="1"/>
<rect x="5" y="8" width="1" height="1"/>
<rect x="11" y="8" width="1" height="1"/>
<rect x="12" y="8" width="1" height="1"/>
<rect x="18" y="8" width="1" height="1"/>
<rect x="19" y="8" width="1" height="1"/>
<rect x="4" y="9" width="1" height="1"/>
<rect x="5" y="9" width="1" height="1"/>
<rect x="11" y="9" width="1" height="1"/>
<rect x="12" y="9" width="1" height="1"/>
<rect x="18" y="9" width="1" height="1"/>
<rect x="19" y="9" width="1" height="1"/>
<rect x="4" y="10" width="1" height="1"/>
<rect x="5" y="10" width="1" height="1"/>
<rect x="11" y="10" width="1" height="1"/>
<rect x="12" y="10" width="1" height="1"/>
<rect x="18" y="10" width="1" height="1"/>
<rect x="19" y="10" width="1" height="1"/>
<rect x="4" y="11" width="1" height="1"/>
<rect x="5" y="11" width="1" height="1"/>
<rect x="11" y="11" width="1" height="1"/>
<rect x="12" y="11" width="1" height="1"/>
<rect x="18" y="11" width="1" height="1"/>
<rect x="19" y="11" width="1" height="1"/>
<rect x="4" y="12" width="1" height="1"/>
<rect x="5" y="12" width="1" height="1"/>
<rect x="18" y="12" width="1" height="1"/>
<rect x="19" y="12" width="1" height="1"/>
<rect x="4" y="13" width="1" height="1"/>
<rect x="5" y="13" width="1" height="1"/>
<rect x="18" y="13" width="1" height="1"/>
<rect x="19" y="13" width="1" height="1"/>
<rect x="4" y="14" width="1" height="1"/>
<rect x="5" y="14" width="1" height="1"/>
<rect x="18" y="14" width="1" height="1"/>
<rect x="19" y="14" width="1" height="1"/>
<rect x="4" y="15" width="1" height="1"/>
<rect x="5" y="15" width="1" height="1"/>
<rect x="18" y="15" width="1" height="1"/>
<rect x="19" y="15" width="1" height="1"/>
<rect x="4" y="16" width="1" height="1"/>
<rect x="5" y="16" width="1" height="1"/>
<rect x="18" y="16" width="1" height="1"/>
<rect x="19" y="16" width="1" height="1"/>
<rect x="4" y="17" width="1" height="1"/>
<rect x="5" y="17" width="1" height="1"/>
<rect x="18" y="17" width="1" height="1"/>
<rect x="19" y="17" width="1" height="1"/>
<rect x="18" y="18" width="1" height="1"/>
<rect x="19" y="18" width="1" height="1"/>
<rect x="18" y="19" width="1" height="1"/>
<rect x="19" y="19" width="1" height="1"/>
<rect x="18" y="20" width="1" height="1"/>
<rect x="19" y="20" width="1" height="1"/>
<rect x="18" y="21" width="1" height="1"/>
<rect x="19" y="21" width="1" height="1"/>
</svg>