<svg xmlns="http://www.w3.org/2000/svg" width="24" height="24" viewBox="0 0 24 24" fill="currentColor">
<rect x="3" y="4" width="1" height="1"/>
<rect x="4" y="4" width="1" height="1"/>
<rect x="5" y="4" width="1" height="1"/>
<rect x="6" y="4" width="1" height="1"/>
<rect x="7" y="4" width="1" height="1"/>
<rect x="8" y="4" width="1" height="1"/>
<rect x="9" y="4" width="1" height="1"/>
<rect x="10" y="4" width="1" height="1"/>
<rect x="11" y="4" width="1" height="1"/>
<rect x="12" y="4" width="1" height="1"/>
<rect x="13" y="4" width="1" height="1"/>
<rect x="14" y="4" width="1" height="1"/>
<rect x="15" y="4" width="1" height="1"/>
<rect x="16" y="4" width="1" height="1"/>
<rect x="17" y="4" width="1" height="1"/>
<rect x="18" y="4" width="1" height="1"/>
<rect x="19" y="4" width="1" height="1"/>
<rect x="20" y="4" width="1" height="1"/>
<rect x="3" y="5" width="1" height="1"/>
<rect x="4" y="5" width="1" height="1"/>
<rect x="5" y="5" width="1" height="1"/>
<rect x="6" y="5" width="1" height="1"/>
<rect x="7" y="5" width="1" height="1"/>
<rect x="8" y="5" width="1" height="1"/>
<rect x="9" y="5" width="1" height="1"/>
<rect x="10" y="5" width="1" height="1"/>
<rect x="11" y="5" width="1" height="1"/>
<rect x="12" y="5" width="1" height="1"/>
<rect x="13" y="5" width="1" height="1"/>
<rect x="14" y="5" width="1" height="1"/>
<rect x="15" y="5" width="1" height="1"/>
<rect x="16" y="5" width="1" height="1"/>
<rect x="17" y="5" width="1" height="1"/>
<rect x="18" y="5" width="1" height="1"/>
<rect x="19" y="5" width="1" height="1"/>
<rect x="20" y="5" width="1" height="1"/>
<rect x="3" y="11" width="1" height="1"/>
<rect x="4" y="11" width="1" height="1"/>
<rect x="5" y="11" width="1" height="1"/>
<rect x="6" y="11" width="1" height="1"/>
<rect x="7" y="11" width="1" height="1"/>
<rect x="8" y="11" width="1" height="1"/>
<rect x="9" y="11" width="1" height="1"/>
<rect x="10" y="11" width="1" height="1"/>
<rect x="11" y="11" width="1" height="1"/>
<rect x="12" y="11" width="1" height="1"/>
<rect x="13" y="11" width="1" height="1"/>
<rect x="14" y="11" width="1" height="1"/>
<rect x="15" y="11" width="1" height="1"/>
<rect x="16" y="11" width="1" height="1"/>
<rect x="17" y="11" width="1" height="1"/>
<rect x="18" y="11" width="1" height="1"/>
<rect x="19" y="11" width="1" height="1"/>
<rect x="20" y="11" width="1" height="1"/>
<rect x="3" y="12" width="1" height="1"/>
<rect x="4" y="12" width="1" height="1"/>
<rect x="5" y="12" width="1" height="1"/>
<rect x="6" y="12" width="1" height="1"/>
<rect x="7" y="12" width="1" height="1"/>
<rect x="8" y="12" width="1" height="1"/>
<rect x="9" y="12" width="1" height="1"/>
<rect x="10" y="12" width="1" height="1"/>
<rect x="11" y="12" width="1" height="1"/>
<rect x="12" y="12" width="1" height="1"/>
<rect x="13" y="12" width="1" height="1"/>
<rect x="14" y="12" width="1" height="1"/>
<rect x="15" y="12" width="1" height="1"/>
<rect x="16" y="12" width="1" height="1"/>
<rect x="17" y="12" width="1" height="1"/>
<rect x="18" y="12" width="1" height="1"/>
<rect x="19" y="12" width="1" height="1"/>
<rect x="20" y="12" width="1" height="1"/>
<rect x="3" y="18" width="1" height="1"/>
<rect x="4" y="18" width="1" height="1"/>
<rect x="5" y="18" width="1" height="1"/>
<rect x="6" y="18" width="1" height="1"/>
<rect x="7" y="18" width="1" height="1"/>
<rect x="8" y="18" width="1" height="1"/>
<rect x="9" y="18" width="1" height="1"/>
<rect x="10" y="18" width="1" height="1"/>
<rect x="11" y="18" width="1" height="1"/>
<rect x="12" y="18" width="1" height="1"/>
<rect x="13" y="18" width="1" height="1"/>
<rect x="14" y="18" width="1" height="1"/>
<rect x="15" y="18" width="1" height="1"/>
<rect x="16" y="18" width="1" height="1"/>
<rect x="17" y="18" width="1" height="1"/>
<rect x="18" y="18" width="1" height="1"/>
<rect x="19" y="18" width="1" height="1"/>
<rect x="20" y="18" width="1" height="1"/>
<rect x="3" y="19" width="1" height="1"/>
<rect x="4" y="19" width="1" height="1"/>
<rect x="5" y="19" width="1" height="1"/>
<rect x="6" y="19" width="1" height="1"/>
<rect x="7" y="19" width="1" height="1"/>
<rect x="8" y="19" width="1" height="1"/>
<rect x="9" y="19" width="1" height="1"/>
<rect x="10" y="19" width="1" height="1"/>
<rect x="11" y="19" width="1" height="1"/>
<rect x="12" y="19" width="1" height="1"/>
<rect x="13" y="19" width="1" height="1"/>
<rect x="14" y="19" width="1" height="1"/>
<rect x="15" y="19" width="1" height="1"/>
<rect x="16" y="19" width="1" height="1"/>
<rect x="17" y="19" width="1" height="1"/>
<rect x="18" y="19" width="1" height="1"/>
<rect x="19" y="19" width="1" height="1"/>
<rect x="20" y="19" width="1" height="1"/>
</svg>