<svg xmlns="http://www.w3.org/2000/svg" width="24" height="24" viewBox="0 0 24 24" fill="currentColor">
<rect x="7" y="2" width="1" height="1"/>
<rect x="8" y="2" width="1" height="1"/>
<rect x="15" y="2" width="1" height="1"/>
<rect x="16" y="2" width="1" height="1"/>
<rect x="7" y="3" width="1" height="1"/>
<rect x="8" y="3" width="1" height="1"/>
<rect x="15" y="3" width="1" height="1"/>
<rect x="16" y="3" width="1" height="1"/>
<rect x="7" y="4" width="1" height="1"/>
<rect x="8" y="4" width="1" height="1"/>
<rect x="15" y="4" width="1" height="1"/>
<rect x="16" y="4" width="1" height="1"/>
<rect x="7" y="5" width="1" height="1"/>
<rect x="8" y="5" width="1" height="1"/>
<rect x="15" y="5" width="1" height="1"/>
<rect x="16" y="5" width="1" height="1"/>
<rect x="6" y="6" width="1" height="1"/>
<rect x="7" y="6" width="1" height="1"/>
<rect x="8" y="6" width="1" height="1"/>
<rect x="15" y="6" width="1" height="1"/>
<rect x="16" y="6" width="1" height="1"/>
<rect x="17" y="6" width="1" height="1"/>
<rect x="2" y="7" width="1" height="1"/>
<rect x="3" y="7" width="1" height="1"/>
<rect x="4" y="7" width="1" height="1"/>
<rect x="5" y="7" width="1" height="1"/>
<rect x="6" y="7" width="1" height="1"/>
<rect x="7" y="7" width="1" height="1"/>
<rect x="8" y="7" width="1" height="1"/>
<rect x="15" y="7" width="1" height="1"/>
<rect x="16" y="7" width="1" height="1"/>
<rect x="17" y="7" width="1" height="1"/>
<rect x="18" y="7" width="1" height="1"/>
<rect x="19" y="7" width="1" height="1"/>
<rect x="20" y="7" width="1" height="1"/>
<rect x="21" y="7" width="1" height="1"/>
<rect x="2" y="8" width="1" height="1"/>
<rect x="3" y="8" width="1" height="1"/>
<rect x="4" y="8" width="1" height="1"/>
<rect x="5" y="8" width="1" height="1"/>
<rect x="6" y="8" width="1" height="1"/>
<rect x="7" y="8" width="1" height="1"/>
<rect x="16" y="8" width="1" height="1"/>
<rect x="17" y="8" width="1" height="1"/>
<rect x="18" y="8" width="1" height="1"/>
<rect x="19" y="8" width="1" height="1"/>
<rect x="20" y="8" width="1" height="1"/>
<rect x="21" y="8" width="1" height="1"/>
<rect x="2" y="15" width="1" height="1"/>
<rect x="3" y="15" width="1" height="1"/>
<rect x="4" y="15" width="1" height="1"/>
<rect x="5" y="15" width="1" height="1"/>
<rect x="6" y="15" width="1" height="1"/>
<rect x="7" y="15" width="1" height="1"/>
<rect x="16" y="15" width="1" height="1"/>
<rect x="17" y="15" width="1" height="1"/>
<rect x="18" y="15" width="1" height="1"/>
<rect x="19" y="15" width="1" height="1"/>
<rect x="20" y="15" width="1" height="1"/>
<rect x="21" y="15" width="1" height="1"/>
<rect x="2" y="16" width="1" height="1"/>
<rect x="3" y="16" width="1" height="1"/>
<rect x="4" y="16" width="1" height="1"/>
<rect x="5" y="16" width="1" height="1"/>
<rect x="6" y="16" width="1" height="1"/>
<rect x="7" y="16" width="1" height="1"/>
<rect x="8" y="16" width="1" height="1"/>
<rect x="15" y="16" width="1" height="1"/>
<rect x="16" y="16" width="1" height="1"/>
<rect x="17" y="16" width="1" height="1"/>
<rect x="18" y="16" width="1" height="1"/>
<rect x="19" y="16" width="1" height="1"/>
<rect x="20" y="16" width="1" height="1"/>
<rect x="21" y="16" width="1" height="1"/>
<rect x="6" y="17" width="1" height="1"/>
<rect x="7" y="17" width="1" height="1"/>
<rect x="8" y="17" width="1" height="1"/>
<rect x="15" y="17" width="1" height="1"/>
<rect x="16" y="17" width="1" height="1"/>
<rect x="17" y="17" width="1" height="1"/>
<rect x="7" y="18" width="1" height="1"/>
<rect x="8" y="18" width="1" height="1"/>
<rect x="15" y="18" width="1" height="1"/>
<rect x="16" y="18" width="1" height="1"/>
<rect x="7" y="19" width="1" height="1"/>
<rect x="8" y="19" width="1" height="1"/>
<rect x="15" y="19" width="1" height="1"/>
<rect x="16" y="19" width="1" height="1"/>
<rect x="7" y="20" width="1" height="1"/>
<rect x="8" y="20" width="1" height="1"/>
<rect x="15" y="20" width="1" height="1"/>
<rect x="16" y="20" width="1" height="1"/>
<rect x="7" y="21" width="1" height="1"/>
<rect x="8" y="21" width="1" height="1"/>
<rect x="15" y="21" width="1" height="1"/>
<rect x="16" y="21" width="1" height="1"/>
</svg>