<svg xmlns="http://www.w3.org/2000/svg" width="24" height="24" viewBox="0 0 24 24" fill="currentColor">
<rect x="21" y="3" width="1" height="1"/>
<rect x="22" y="3" width="1" height="1"/>
<rect x="21" y="4" width="1" height="1"/>
<rect x="22" y="4" width="1" height="1"/>
<rect x="21" y="5" width="1" height="1"/>
<rect x="22" y="5" width="1" height="1"/>
<rect x="21" y="6" width="1" height="1"/>
<rect x="22" y="6" width="1" height="1"/>
<rect x="16" y="7" width="1" height="1"/>
<rect x="17" y="7" width="1" height="1"/>
<rect x="21" y="7" width="1" height="1"/>
<rect x="22" y="7" width="1" height="1"/>
<rect x="16" y="8" width="1" height="1"/>
<rect x="17" y="8" width="1" height="1"/>
<rect x="21" y="8" width="1" height="1"/>
<rect x="22" y="8" width="1" height="1"/>
<rect x="16" y="9" width="1" height="1"/>
<rect x="17" y="9" width="1" height="1"/>
<rect x="21" y="9" width="1" height="1"/>
<rect x="22" y="9" width="1" height="1"/>
<rect x="16" y="10" width="1" height="1"/>
<rect x="17" y="10" width="1" height="1"/>
<rect x="21" y="10" width="1" height="1"/>
<rect x="22" y="10" width="1" height="1"/>
<rect x="11" y="11" width="1" height="1"/>
<rect x="12" y="11" width="1" height="1"/>
<rect x="16" y="11" width="1" height="1"/>
<rect x="17" y="11" width="1" height="1"/>
<rect x="21" y="11" width="1" height="1"/>
<rect x="22" y="11" width="1" height="1"/>
<rect x="11" y="12" width="1" height="1"/>
<rect x="12" y="12" width="1" height="1"/>
<rect x="16" y="12" width="1" height="1"/>
<rect x="17" y="12" width="1" height="1"/>
<rect x="21" y="12" width="1" height="1"/>
<rect x="22" y="12" width="1" height="1"/>
<rect x="11" y="13" width="1" height="1"/>
<rect x="12" y="13" width="1" height="1"/>
<rect x="16" y="13" width="1" height="1"/>
<rect x="17" y="13" width="1" height="1"/>
<rect x="21" y="13" width="1" height="1"/>
<rect x="22" y="13" width="1" height="1"/>
<rect x="11" y="14" width="1" height="1"/>
<rect x="12" y="14" width="1" height="1"/>
<rect x="16" y="14" width="1" height="1"/>
<rect x="17" y="14" width="1" height="1"/>
<rect x="21" y="14" width="1" height="1"/>
<rect x="22" y="14" width="1" height="1"/>
<rect x="6" y="15" width="1" height="1"/>
<rect x="7" y="15" width="1" height="1"/>
<rect x="11" y="15" width="1" height="1"/>
<rect x="12" y="15" width="1" height="1"/>
<rect x="16" y="15" width="1" height="1"/>
<rect x="17" y="15" width="1" height="1"/>
<rect x="21" y="15" width="1" height="1"/>
<rect x="22" y="15" width="1" height="1"/>
<rect x="6" y="16" width="1" height="1"/>
<rect x="7" y="16" width="1" height="1"/>
<rect x="11" y="16" width="1" height="1"/>
<rect x="12" y="16" width="1" height="1"/>
<rect x="16" y="16" width="1" height="1"/>
<rect x="17" y="16" width="1" height="1"/>
<rect x="21" y="16" width="1" height="1"/>
<rect x="22" y="16" width="1" height="1"/>
<rect x="6" y="17" width="1" height="1"/>
<rect x="7" y="17" width="1" height="1"/>
<rect x="11" y="17" width="1" height="1"/>
<rect x="12" y="17" width="1" height="1"/>
<rect x="16" y="17" width="1" height="1"/>
<rect x="17" y="17" width="1" height="1"/>
<rect x="21" y="17" width="1" height="1"/>
<rect x="22" y="17" width="1" height="1"/>
<rect x="6" y="18" width="1" height="1"/>
<rect x="7" y="18" width="1" height="1"/>
<rect x="11" y="18" width="1" height="1"/>
<rect x="12" y="18" width="1" height="1"/>
<rect x="16" y="18" width="1" height="1"/>
<rect x="17" y="18" width="1" height="1"/>
<rect x="21" y="18" width="1" height="1"/>
<rect x="22" y="18" width="1" height="1"/>
<rect x="1" y="19" width="1" height="1"/>
<rect x="2" y="19" width="1" height="1"/>
<rect x="6" y="19" width="1" height="1"/>
<rect x="7" y="19" width="1" height="1"/>
<rect x="11" y="19" width="1" height="1"/>
<rect x="12" y="19" width="1" height="1"/>
<rect x="16" y="19" width="1" height="1"/>
<rect x="17" y="19" width="1" height="1"/>
<rect x="21" y="19" width="1" height="1"/>
<rect x="22" y="19" width="1" height="1"/>
<rect x="1" y="20" width="1" height="1"/>
<rect x="2" y="20" width="1" height="1"/>
<rect x="6" y="20" width="1" height="1"/>
<rect x="7" y="20" width="1" height="1"/>
<rect x="11" y="20" width="1" height="1"/>
<rect x="12" y="20" width="1" height="1"/>
<rect x="16" y="20" width="1" height="1"/>
<rect x="17" y="20" width="1" height="1"/>
<rect x="21" y="20" width="1" height="1"/>
<rect x="22" y="20" width="1" height="1"/>
</svg>