<svg xmlns="http://www.w3.org/2000/svg" width="24" height="24" viewBox="0 0 24 24" fill="currentColor">
<rect x="11" y="11" width="1" height="1"/>
<rect x="12" y="11" width="1" height="1"/>
<rect x="11" y="12" width="1" height="1"/>
<rect x="12" y="12" width="1" height="1"/>
<rect x="11" y="13" width="1" height="1"/>
<rect x="12" y="13" width="1" height="1"/>
<rect x="11" y="14" width="1" height="1"/>
<rect x="12" y="14" width="1" height="1"/>
<rect x="6" y="15" width="1" height="1"/>
<rect x="7" y="15" width="1" height="1"/>
<rect x="11" y="15" width="1" height="1"/>
<rect x="12" y="15" width="1" height="1"/>
<rect x="6" y="16" width="1" height="1"/>
<rect x="7" y="16" width="1" height="1"/>
<rect x="11" y="16" width="1" height="1"/>
<rect x="12" y="16" width="1" height="1"/>
<rect x="6" y="17" width="1" height="1"/>
<rect x="7" y="17" width="1" height="1"/>
<rect x="11" y="17" width="1" height="1"/>
<rect x="12" y="17" width="1" height="1"/>
<rect x="6" y="18" width="1" height="1"/>
<rect x="7" y="18" width="1" height="1"/>
<rect x="11" y="18" width="1" height="1"/>
<rect x="12" y="18" width="1" height="1"/>
<rect x="1" y="19" width="1" height="1"/>
<rect x="2" y="19" width="1" height="1"/>
<rect x="6" y="19" width="1" height="1"/>
<rect x="7" y="19" width="1" height="1"/>
<rect x="11" y="19" width="1" height="1"/>
<rect x="12" y="19" width="1" height="1"/>
<rect x="1" y="20" width="1" height="1"/>
<rect x="2" y="20" width="1" height="1"/>
<rect x="6" y="20" width="1" height="1"/>
<rect x="7" y="20" width="1" height="1"/>
<rect x="11" y="20" width="1" height="1"/>
<rect x="12" y="20" width="1" height="1"/>
</svg>