<svg xmlns="http://www.w3.org/2000/svg" width="24" height="24" viewBox="0 0 24 24" fill="currentColor">
<rect x="3" y="3" width="1" height="1"/>
<rect x="4" y="3" width="1" height="1"/>
<rect x="3" y="4" width="1" height="1"/>
<rect x="4" y="4" width="1" height="1"/>
<rect x="3" y="5" width="1" height="1"/>
<rect x="4" y="5" width="1" height="1"/>
<rect x="3" y="6" width="1" height="1"/>
<rect x="4" y="6" width="1" height="1"/>
<rect x="3" y="7" width="1" height="1"/>
<rect x="4" y="7" width="1" height="1"/>
<rect x="3" y="8" width="1" height="1"/>
<rect x="4" y="8" width="1" height="1"/>
<rect x="3" y="9" width="1" height="1"/>
<rect x="4" y="9" width="1" height="1"/>
<rect x="3" y="10" width="1" height="1"/>
<rect x="4" y="10" width="1" height="1"/>
<rect x="3" y="11" width="1" height="1"/>
<rect x="4" y="11" width="1" height="1"/>
<rect x="3" y="12" width="1" height="1"/>
<rect x="4" y="12" width="1" height="1"/>
<rect x="3" y="13" width="1" height="1"/>
<rect x="4" y="13" width="1" height="1"/>
<rect x="3" y="14" width="1" height="1"/>
<rect x="4" y="14" width="1" height="1"/>
<rect x="3" y="15" width="1" height="1"/>
<rect x="4" y="15" width="1" height="1"/>
<rect x="3" y="16" width="1" height="1"/>
<rect x="4" y="16" width="1" height="1"/>
<rect x="3" y="17" width="1" height="1"/>
<rect x="4" y="17" width="1" height="1"/>
<rect x="3" y="18" width="1" height="1"/>
<rect x="4" y="18" width="1" height="1"/>
<rect x="3" y="19" width="1" height="1"/>
<rect x="4" y="19" width="1" height="1"/>
<rect x="3" y="20" width="1" height="1"/>
<rect x="4" y="20" width="1" height="1"/>
</svg>