<svg xmlns="http://www.w3.org/2000/svg" width="24" height="24" viewBox="0 0 24 24" fill="currentColor">
<rect x="3" y="3" width="1" height="1"/>
<rect x="4" y="3" width="1" height="1"/>
<rect x="8" y="3" width="1" height="1"/>
<rect x="9" y="3" width="1" height="1"/>
<rect x="13" y="3" width="1" height="1"/>
<rect x="14" y="3" width="1" height="1"/>
<rect x="18" y="3" width="1" height="1"/>
<rect x="19" y="3" width="1" height="1"/>
<rect x="3" y="4" width="1" height="1"/>
<rect x="4" y="4" width="1" height="1"/>
<rect x="8" y="4" width="1" height="1"/>
<rect x="9" y="4" width="1" height="1"/>
<rect x="13" y="4" width="1" height="1"/>
<rect x="14" y="4" width="1" height="1"/>
<rect x="18" y="4" width="1" height="1"/>
<rect x="19" y="4" width="1" height="1"/>
<rect x="3" y="5" width="1" height="1"/>
<rect x="4" y="5" width="1" height="1"/>
<rect x="8" y="5" width="1" height="1"/>
<rect x="9" y="5" width="1" height="1"/>
<rect x="13" y="5" width="1" height="1"/>
<rect x="14" y="5" width="1" height="1"/>
<rect x="18" y="5" width="1" height="1"/>
<rect x="19" y="5" width="1" height="1"/>
<rect x="3" y="6" width="1" height="1"/>
<rect x="4" y="6" width="1" height="1"/>
<rect x="8" y="6" width="1" height="1"/>
<rect x="9" y="6" width="1" height="1"/>
<rect x="13" y="6" width="1" height="1"/>
<rect x="14" y="6" width="1" height="1"/>
<rect x="18" y="6" width="1" height="1"/>
<rect x="19" y="6" width="1" height="1"/>
<rect x="3" y="7" width="1" height="1"/>
<rect x="4" y="7" width="1" height="1"/>
<rect x="8" y="7" width="1" height="1"/>
<rect x="9" y="7" width="1" height="1"/>
<rect x="13" y="7" width="1" height="1"/>
<rect x="14" y="7" width="1" height="1"/>
<rect x="18" y="7" width="1" height="1"/>
<rect x="19" y="7" width="1" height="1"/>
<rect x="3" y="8" width="1" height="1"/>
<rect x="4" y="8" width="1" height="1"/>
<rect x="8" y="8" width="1" height="1"/>
<rect x="9" y="8" width="1" height="1"/>
<rect x="13" y="8" width="1" height="1"/>
<rect x="14" y="8" width="1" height="1"/>
<rect x="18" y="8" width="1" height="1"/>
<rect x="19" y="8" width="1" height="1"/>
<rect x="3" y="9" width="1" height="1"/>
<rect x="4" y="9" width="1" height="1"/>
<rect x="8" y="9" width="1" height="1"/>
<rect x="9" y="9" width="1" height="1"/>
<rect x="13" y="9" width="1" height="1"/>
<rect x="14" y="9" width="1" height="1"/>
<rect x="18" y="9" width="1" height="1"/>
<rect x="19" y="9" width="1" height="1"/>
<rect x="3" y="10" width="1" height="1"/>
<rect x="4" y="10" width="1" height="1"/>
<rect x="8" y="10" width="1" height="1"/>
<rect x="9" y="10" width="1" height="1"/>
<rect x="13" y="10" width="1" height="1"/>
<rect x="14" y="10" width="1" height="1"/>
<rect x="18" y="10" width="1" height="1"/>
<rect x="19" y="10" width="1" height="1"/>
<rect x="3" y="11" width="1" height="1"/>
<rect x="4" y="11" width="1" height="1"/>
<rect x="8" y="11" width="1" height="1"/>
<rect x="9" y="11" width="1" height="1"/>
<rect x="13" y="11" width="1" height="1"/>
<rect x="14" y="11" width="1" height="1"/>
<rect x="18" y="11" width="1" height="1"/>
<rect x="19" y="11" width="1" height="1"/>
<rect x="3" y="12" width="1" height="1"/>
<rect x="4" y="12" width="1" height="1"/>
<rect x="8" y="12" width="1" height="1"/>
<rect x="9" y="12" width="1" height="1"/>
<rect x="13" y="12" width="1" height="1"/>
<rect x="14" y="12" width="1" height="1"/>
<rect x="18" y="12" width="1" height="1"/>
<rect x="19" y="12" width="1" height="1"/>
<rect x="3" y="13" width="1" height="1"/>
<rect x="4" y="13" width="1" height="1"/>
<rect x="8" y="13" width="1" height="1"/>
<rect x="9" y="13" width="1" height="1"/>
<rect x="13" y="13" width="1" height="1"/>
<rect x="14" y="13" width="1" height="1"/>
<rect x="18" y="13" width="1" height="1"/>
<rect x="19" y="13" width="1" height="1"/>
<rect x="3" y="14" width="1" height="1"/>
<rect x="4" y="14" width="1" height="1"/>
<rect x="8" y="14" width="1" height="1"/>
<rect x="9" y="14" width="1" height="1"/>
<rect x="13" y="14" width="1" height="1"/>
<rect x="14" y="14" width="1" height="1"/>
<rect x="18" y="14" width="1" height="1"/>
<rect x="19" y="14" width="1" height="1"/>
<rect x="3" y="15" width="1" height="1"/>
<rect x="4" y="15" width="1" height="1"/>
<rect x="8" y="15" width="1" height="1"/>
<rect x="9" y="15" width="1" height="1"/>
<rect x="13" y="15" width="1" height="1"/>
<rect x="14" y="15" width="1" height="1"/>
<rect x="18" y="15" width="1" height="1"/>
<rect x="19" y="15" width="1" height="1"/>
<rect x="3" y="16" width="1" height="1"/>
<rect x="4" y="16" width="1" height="1"/>
<rect x="8" y="16" width="1" height="1"/>
<rect x="9" y="16" width="1" height="1"/>
<rect x="13" y="16" width="1" height="1"/>
<rect x="14" y="16" width="1" height="1"/>
<rect x="18" y="16" width="1" height="1"/>
<rect x="19" y="16" width="1" height="1"/>
<rect x="3" y="17" width="1" height="1"/>
<rect x="4" y="17" width="1" height="1"/>
<rect x="8" y="17" width="1" height="1"/>
<rect x="9" y="17" width="1" height="1"/>
<rect x="13" y="17" width="1" height="1"/>
<rect x="14" y="17" width="1" height="1"/>
<rect x="18" y="17" width="1" height="1"/>
<rect x="19" y="17" width="1" height="1"/>
<rect x="3" y="18" width="1" height="1"/>
<rect x="4" y="18" width="1" height="1"/>
<rect x="8" y="18" width="1" height="1"/>
<rect x="9" y="18" width="1" height="1"/>
<rect x="13" y="18" width="1" height="1"/>
<rect x="14" y="18" width="1" height="1"/>
<rect x="18" y="18" width="1" height="1"/>
<rect x="19" y="18" width="1" height="1"/>
<rect x="3" y="19" width="1" height="1"/>
<rect x="4" y="19" width="1" height="1"/>
<rect x="8" y="19" width="1" height="1"/>
<rect x="9" y="19" width="1" height="1"/>
<rect x="13" y="19" width="1" height="1"/>
<rect x="14" y="19" width="1" height="1"/>
<rect x="18" y="19" width="1" height="1"/>
<rect x="19" y="19" width="1" height="1"/>
<rect x="3" y="20" width="1" height="1"/>
<rect x="4" y="20" width="1" height="1"/>
<rect x="8" y="20" width="1" height="1"/>
<rect x="9" y="20" width="1" height="1"/>
<rect x="13" y="20" width="1" height="1"/>
<rect x="14" y="20" width="1" height="1"/>
<rect x="18" y="20" width="1" height="1"/>
<rect x="19" y="20" width="1" height="1"/>
</svg>