<svg xmlns="http://www.w3.org/2000/svg" width="24" height="24" viewBox="0 0 24 24" fill="currentColor">
<rect x="2" y="3" width="1" height="1"/>
<rect x="3" y="3" width="1" height="1"/>
<rect x="4" y="3" width="1" height="1"/>
<rect x="5" y="3" width="1" height="1"/>
<rect x="6" y="3" width="1" height="1"/>
<rect x="7" y="3" width="1" height="1"/>
<rect x="8" y="3" width="1" height="1"/>
<rect x="9" y="3" width="1" height="1"/>
<rect x="10" y="3" width="1" height="1"/>
<rect x="11" y="3" width="1" height="1"/>
<rect x="12" y="3" width="1" height="1"/>
<rect x="13" y="3" width="1" height="1"/>
<rect x="14" y="3" width="1" height="1"/>
<rect x="15" y="3" width="1" height="1"/>
<rect x="16" y="3" width="1" height="1"/>
<rect x="17" y="3" width="1" height="1"/>
<rect x="18" y="3" width="1" height="1"/>
<rect x="19" y="3" width="1" height="1"/>
<rect x="20" y="3" width="1" height="1"/>
<rect x="21" y="3" width="1" height="1"/>
<rect x="2" y="4" width="1" height="1"/>
<rect x="3" y="4" width="1" height="1"/>
<rect x="4" y="4" width="1" height="1"/>
<rect x="5" y="4" width="1" height="1"/>
<rect x="6" y="4" width="1" height="1"/>
<rect x="7" y="4" width="1" height="1"/>
<rect x="8" y="4" width="1" height="1"/>
<rect x="9" y="4" width="1" height="1"/>
<rect x="10" y="4" width="1" height="1"/>
<rect x="11" y="4" width="1" height="1"/>
<rect x="12" y="4" width="1" height="1"/>
<rect x="13" y="4" width="1" height="1"/>
<rect x="14" y="4" width="1" height="1"/>
<rect x="15" y="4" width="1" height="1"/>
<rect x="16" y="4" width="1" height="1"/>
<rect x="17" y="4" width="1" height="1"/>
<rect x="18" y="4" width="1" height="1"/>
<rect x="19" y="4" width="1" height="1"/>
<rect x="20" y="4" width="1" height="1"/>
<rect x="21" y="4" width="1" height="1"/>
<rect x="5" y="7" width="1" height="1"/>
<rect x="6" y="7" width="1" height="1"/>
<rect x="7" y="7" width="1" height="1"/>
<rect x="8" y="7" width="1" height="1"/>
<rect x="9" y="7" width="1" height="1"/>
<rect x="10" y="7" width="1" height="1"/>
<rect x="11" y="7" width="1" height="1"/>
<rect x="12" y="7" width="1" height="1"/>
<rect x="13" y="7" width="1" height="1"/>
<rect x="14" y="7" width="1" height="1"/>
<rect x="15" y="7" width="1" height="1"/>
<rect x="16" y="7" width="1" height="1"/>
<rect x="17" y="7" width="1" height="1"/>
<rect x="18" y="7" width="1" height="1"/>
<rect x="5" y="8" width="1" height="1"/>
<rect x="6" y="8" width="1" height="1"/>
<rect x="7" y="8" width="1" height="1"/>
<rect x="8" y="8" width="1" height="1"/>
<rect x="9" y="8" width="1" height="1"/>
<rect x="10" y="8" width="1" height="1"/>
<rect x="11" y="8" width="1" height="1"/>
<rect x="12" y="8" width="1" height="1"/>
<rect x="13" y="8" width="1" height="1"/>
<rect x="14" y="8" width="1" height="1"/>
<rect x="15" y="8" width="1" height="1"/>
<rect x="16" y="8" width="1" height="1"/>
<rect x="17" y="8" width="1" height="1"/>
<rect x="18" y="8" width="1" height="1"/>
<rect x="8" y="11" width="1" height="1"/>
<rect x="9" y="11" width="1" height="1"/>
<rect x="10" y="11" width="1" height="1"/>
<rect x="11" y="11" width="1" height="1"/>
<rect x="12" y="11" width="1" height="1"/>
<rect x="13" y="11" width="1" height="1"/>
<rect x="14" y="11" width="1" height="1"/>
<rect x="15" y="11" width="1" height="1"/>
<rect x="16" y="11" width="1" height="1"/>
<rect x="17" y="11" width="1" height="1"/>
<rect x="18" y="11" width="1" height="1"/>
<rect x="19" y="11" width="1" height="1"/>
<rect x="8" y="12" width="1" height="1"/>
<rect x="9" y="12" width="1" height="1"/>
<rect x="10" y="12" width="1" height="1"/>
<rect x="11" y="12" width="1" height="1"/>
<rect x="12" y="12" width="1" height="1"/>
<rect x="13" y="12" width="1" height="1"/>
<rect x="14" y="12" width="1" height="1"/>
<rect x="15" y="12" width="1" height="1"/>
<rect x="16" y="12" width="1" height="1"/>
<rect x="17" y="12" width="1" height="1"/>
<rect x="18" y="12" width="1" height="1"/>
<rect x="19" y="12" width="1" height="1"/>
<rect x="9" y="15" width="1" height="1"/>
<rect x="10" y="15" width="1" height="1"/>
<rect x="11" y="15" width="1" height="1"/>
<rect x="12" y="15" width="1" height="1"/>
<rect x="13" y="15" width="1" height="1"/>
<rect x="14" y="15" width="1" height="1"/>
<rect x="15" y="15" width="1" height="1"/>
<rect x="16" y="15" width="1" height="1"/>
<rect x="9" y="16" width="1" height="1"/>
<rect x="10" y="16" width="1" height="1"/>
<rect x="11" y="16" width="1" height="1"/>
<rect x="12" y="16" width="1" height="1"/>
<rect x="13" y="16" width="1" height="1"/>
<rect x="14" y="16" width="1" height="1"/>
<rect x="15" y="16" width="1" height="1"/>
<rect x="16" y="16" width="1" height="1"/>
<rect x="8" y="19" width="1" height="1"/>
<rect x="9" y="19" width="1" height="1"/>
<rect x="10" y="19" width="1" height="1"/>
<rect x="11" y="19" width="1" height="1"/>
<rect x="8" y="20" width="1" height="1"/>
<rect x="9" y="20" width="1" height="1"/>
<rect x="10" y="20" width="1" height="1"/>
<rect x="11" y="20" width="1" height="1"/>
</svg>